# xmcd
#
# Track frame offsets:
# 150
# 12970
# 25667
# 42860
# 59642
# 78330
# 99617
# 115425
# 134157
# 152415
#
# Disc length: 2301 seconds
#
#
# Revision: 3
# Processed by: cddbd v1.5.1PL0 Copyright (c) Steve Scherf et al.
# Submitted via: FreeRIP 2.60 
#
DISCID=7f08fb0a
DTITLE=Restless Heart - Big Iron Horses
DYEAR=1992
DGENRE=Country
TTITLE0=Mending Fences
TTITLE1=We Got The Love
TTITLE2=As Far As I Can Tell
TTITLE3=When She Cries
TTITLE4=Meet Me On The Other Side
TTITLE5=Tell Me What You Dream
TTITLE6=Blame It On Love
TTITLE7=Born In A High Wind
TTITLE8=Just In Time
TTITLE9=Big Iron Horses
EXTD=YEAR: 1992
EXTT0=
EXTT1=
EXTT2=
EXTT3=
EXTT4=
EXTT5=
EXTT6=
EXTT7=
EXTT8=
EXTT9=
PLAYORDER=
